<svg xmlns="http://www.w3.org/2000/svg" width="50" height="42" viewBox="0 0 50 42" fill="none">
  <path d="M21.1234 30.1875C22.1233 31.2375 23.4149 31.752 24.9981 31.731C26.5813 31.71 27.7479 31.108 28.4978 29.925L42.4967 7.875L21.4983 22.575C20.3734 23.3625 19.7801 24.5656 19.7185 26.1844C19.6568 27.8031 20.1251 29.1375 21.1234 30.1875ZM24.9981 0C27.4562 0 29.821 0.3605 32.0925 1.0815C34.364 1.8025 36.4988 2.88575 38.497 4.33125L33.7474 7.48125C32.3725 6.7375 30.9459 6.18012 29.4677 5.80912C27.9895 5.43812 26.4996 5.25175 24.9981 5.25C19.4568 5.25 14.738 7.29575 10.8417 11.3873C6.9453 15.4788 4.99795 20.433 4.99961 26.25C4.99961 28.0875 5.2396 29.9031 5.71956 31.6969C6.19952 33.4906 6.87614 35.175 7.7494 36.75H42.2467C43.205 35.0875 43.9033 33.3594 44.3416 31.5656C44.7799 29.7719 44.9982 27.9125 44.9965 25.9875C44.9965 24.4125 44.819 22.8812 44.4641 21.3937C44.1091 19.9062 43.5783 18.4625 42.8717 17.0625L45.8715 12.075C47.1214 14.1313 48.1113 16.3188 48.8412 18.6375C49.5712 20.9563 49.9561 23.3625 49.9961 25.8563C50.0361 28.35 49.7653 30.7344 49.1837 33.0094C48.6021 35.2844 47.748 37.45 46.6214 39.5062C46.1631 40.2937 45.5381 40.9062 44.7465 41.3438C43.9549 41.7812 43.1217 42 42.2467 42H7.7494C6.87447 42 6.0412 41.7812 5.24959 41.3438C4.45799 40.9062 3.83304 40.2937 3.37474 39.5062C2.29149 37.5375 1.45822 35.4489 0.874932 33.2404C0.291644 31.0319 0 28.7017 0 26.25C0 22.6187 0.656616 19.2176 1.96985 16.0466C3.28308 12.8756 5.07461 10.0975 7.34443 7.71225C9.61426 5.327 12.2699 3.44575 15.3113 2.0685C18.3527 0.69125 21.5817 0.00175 24.9981 0Z" fill="black"/>
</svg>