<svg xmlns="http://www.w3.org/2000/svg" width="50" height="50" viewBox="0 0 24 24" fill="none">
  <path d="M2.5 2.75C2.5 2.55109 2.42098 2.36032 2.28033 2.21967C2.13968 2.07902 1.94891 2 1.75 2C1.55109 2 1.36032 2.07902 1.21967 2.21967C1.07902 2.36032 1 2.55109 1 2.75V21.25C1 21.664 1.336 22 1.75 22H20C20.1989 22 20.3897 21.921 20.5303 21.7803C20.671 21.6397 20.75 21.4489 20.75 21.25C20.75 21.0511 20.671 20.8603 20.5303 20.7197C20.3897 20.579 20.1989 20.5 20 20.5H2.5V2.75Z" fill="black"/>
  <path d="M22.28 7.78003C22.4125 7.63785 22.4846 7.44981 22.4812 7.25551C22.4777 7.06121 22.399 6.87582 22.2616 6.73841C22.1242 6.60099 21.9388 6.52228 21.7445 6.51885C21.5502 6.51543 21.3622 6.58755 21.22 6.72003L15.5 12.44L11.78 8.72003C11.6394 8.57958 11.4488 8.50069 11.25 8.50069C11.0513 8.50069 10.8606 8.57958 10.72 8.72003L4.72 14.72C4.64631 14.7887 4.58721 14.8715 4.54622 14.9635C4.50523 15.0555 4.48319 15.1548 4.48141 15.2555C4.47963 15.3562 4.49816 15.4562 4.53588 15.5496C4.5736 15.643 4.62974 15.7278 4.70096 15.7991C4.77218 15.8703 4.85701 15.9264 4.9504 15.9642C5.04379 16.0019 5.14382 16.0204 5.24452 16.0186C5.34523 16.0168 5.44454 15.9948 5.53654 15.9538C5.62854 15.9128 5.71134 15.8537 5.78 15.78L11.25 10.31L14.97 14.03C15.1106 14.1705 15.3013 14.2494 15.5 14.2494C15.6988 14.2494 15.8894 14.1705 16.03 14.03L22.28 7.78003Z" fill="black"/>
</svg>