<svg xmlns="http://www.w3.org/2000/svg" width="50" height="50" viewBox="0 0 50 50" fill="none">
  <path d="M5.05 50C3.61042 50 2.40937 49.5776 1.44687 48.7329C0.484374 47.8882 0.00208333 46.8341 0 45.5707V10.548C0 9.28639 0.482291 8.23324 1.44687 7.38853C2.41146 6.54381 3.6125 6.12054 5.05 6.11871H10.5781V1.47827C10.5781 1.05226 10.7375 0.699376 11.0562 0.419633C11.375 0.13989 11.776 1.89144e-05 12.2594 1.89144e-05C12.7427 1.89144e-05 13.1448 0.13989 13.4656 0.419633C13.7865 0.699376 13.9458 1.05226 13.9437 1.47827V6.11871H36.3V1.37405C36.3 0.982777 36.449 0.655495 36.7469 0.392208C37.0448 0.12892 37.4167 -0.00180947 37.8625 1.89144e-05C38.3083 0.0018473 38.6792 0.132577 38.975 0.392208C39.2708 0.651838 39.4208 0.978206 39.425 1.37131V6.11871H44.9531C46.3906 6.11871 47.5917 6.54199 48.5562 7.38853C49.5208 8.23507 50.0021 9.28914 50 10.5507V45.5707C50 46.8323 49.5187 47.8864 48.5562 48.7329C47.5937 49.5795 46.3917 50.0018 44.95 50H5.05ZM5.05 47.2574H44.9531C45.4323 47.2574 45.8729 47.0819 46.275 46.7308C46.6771 46.3798 46.8771 45.9922 46.875 45.568V21.521H3.125V45.5707C3.125 45.9913 3.325 46.378 3.725 46.7308C4.125 47.0837 4.56562 47.2592 5.04687 47.2574" fill="black"/>
</svg>