<svg xmlns="http://www.w3.org/2000/svg" width="50" height="50" viewBox="0 0 50 50" fill="none">
  <path d="M7.73457 0C4.35334 0 0.967878 2.55387 0.967878 7.66161L7.73457 21.2822L14.497 7.66161C14.497 2.55387 11.1158 0 7.73457 0ZM37.5634 4.15004C36.8343 4.1809 36.1264 4.3203 35.5347 4.44799L35.9362 6.32083C36.5279 6.18781 37.1407 6.10375 37.6585 6.06544L37.5634 4.15004ZM7.73457 4.25645C9.60482 4.25645 11.1158 5.78132 11.1158 7.66161C11.1158 9.54509 9.60482 11.0668 7.73457 11.0668C5.8675 11.0668 4.35334 9.54509 4.35334 7.66161C4.35334 5.78132 5.8675 4.25645 7.73457 4.25645ZM39.6661 4.27773L39.3491 6.16121C39.8669 6.27081 40.3846 6.40808 40.839 6.68262L41.7582 5.00133C41.1137 4.65549 40.3952 4.34477 39.6661 4.27773ZM33.5904 4.99069C32.9459 5.24395 32.3014 5.4706 31.7519 5.693L32.5021 7.44879C33.0833 7.19978 33.6961 6.9827 34.2139 6.79968L33.5904 4.99069ZM43.4911 6.4166L42.0435 7.66161C42.4239 8.10002 42.7198 8.64059 42.9522 9.07688L44.6534 8.21495C44.2942 7.51795 43.9772 6.99015 43.4911 6.4166ZM29.9873 6.51237C29.3428 6.84331 28.8145 7.13806 28.2439 7.4275L29.1737 9.1088C29.7232 8.78957 30.3254 8.48097 30.8115 8.23623L29.9873 6.51237ZM26.5744 8.41713C26.0144 8.747 25.4649 9.07688 24.926 9.43867L25.9615 11.0348C26.4793 10.6943 27.0182 10.3751 27.5465 10.0559L26.5744 8.41713ZM45.3085 10.3219C44.6851 10.4283 44.0511 10.5028 43.4277 10.5773C43.47 11.1093 43.4383 11.684 43.3326 12.1309L45.1817 12.5672C45.2874 11.801 45.3825 11.0136 45.3085 10.3219ZM23.32 10.5028C22.7916 10.8646 22.2739 11.237 21.7456 11.5988L22.8445 13.1631C23.3517 12.7906 23.8694 12.4395 24.3872 12.0777L23.32 10.5028ZM20.1923 12.7481C19.664 13.1311 19.1145 13.5568 18.6602 13.9079L19.8119 15.4296C20.3931 15.004 20.7946 14.6847 21.3229 14.291L20.1923 12.7481ZM42.6986 13.5994C42.3817 14.0888 42.0118 14.5783 41.642 14.9508L43.0262 16.2809C43.4806 15.7382 43.9666 15.1849 44.3047 14.6315L42.6986 13.5994ZM17.1492 15.0998C16.6314 15.5041 16.1137 15.9191 15.6593 16.3022L16.8639 17.7813C17.3605 17.3663 17.8677 16.9407 18.3326 16.6002L17.1492 15.0998ZM40.3318 16.1745C39.8457 16.5682 39.3385 16.9513 38.8736 17.2705L39.962 18.8454C40.522 18.4623 41.0714 18.0473 41.5469 17.6643L40.3318 16.1745ZM14.1906 17.5472C13.694 17.9516 13.2185 18.3772 12.7325 18.7922L13.9687 20.2501C14.4442 19.8351 14.9197 19.42 15.4057 19.0157L14.1906 17.5472ZM37.3204 18.2921C36.7815 18.6113 36.2215 18.9412 35.7143 19.2179L36.623 20.9098C37.1936 20.5586 37.8381 20.2501 38.3136 19.9308L37.3204 18.2921ZM11.2849 20.0585C10.8094 20.4842 10.3445 20.9098 9.86898 21.3461L11.1475 22.772C11.6124 22.3464 12.0879 21.9207 12.5528 21.4951L11.2849 20.0585ZM34.0554 20.1011C33.4954 20.3777 32.9353 20.6651 32.3753 20.9417L33.1889 22.6656C33.844 22.3464 34.3301 22.0803 34.9218 21.8037L34.0554 20.1011ZM30.6741 21.7398C30.093 22.0058 29.533 22.2612 28.9412 22.506L29.7126 24.2618C30.2937 24.0064 30.8749 23.7403 31.456 23.4743L30.6741 21.7398ZM8.47422 22.6656C7.93533 23.1444 7.56023 23.5169 7.06889 23.9957L8.41082 25.3791C8.90744 24.9002 9.30896 24.4852 9.77388 24.0809L8.47422 22.6656ZM27.2084 23.2828C26.6272 23.5275 26.0461 23.7829 25.4649 24.0277L26.2046 25.8047C26.7963 25.56 27.3774 25.3046 27.9586 25.0492L27.2084 23.2828ZM23.7109 24.7725C23.1298 25.0279 22.5486 25.2833 21.9569 25.5174L22.6965 27.2945C23.2777 27.0497 23.8694 26.7943 24.4506 26.5496L23.7109 24.7725ZM43.2375 25.5387C39.8563 25.5387 36.4751 28.0926 36.4751 33.2003L43.2375 46.8209L50 33.2003C50 28.0926 46.6188 25.5387 43.2375 25.5387ZM20.2029 26.2623C19.6006 26.539 18.9666 26.7943 18.4489 27.0178L19.1991 28.7842C19.8225 28.5182 20.4142 28.2628 20.9425 28.0287L20.2029 26.2623ZM16.6948 27.7733C16.1243 28.0394 15.4586 28.3373 14.9514 28.5714L15.7333 30.3166C16.3567 30.0399 16.9062 29.7632 17.4556 29.5291L16.6948 27.7733ZM13.2079 29.3695C12.6162 29.6568 12.0034 29.9548 11.4751 30.2208L12.3309 31.934C12.9015 31.6361 13.4932 31.3594 14.011 31.104L13.2079 29.3695ZM43.2375 29.7951C45.1078 29.7951 46.6188 31.3168 46.6188 33.2003C46.6188 35.0838 45.1078 36.6055 43.2375 36.6055C41.3673 36.6055 39.8563 35.0838 39.8563 33.2003C39.8563 31.3168 41.3673 29.7951 43.2375 29.7951ZM9.76331 31.104C9.2033 31.4126 8.64328 31.7318 8.0727 32.0617L9.02367 33.7217C9.56255 33.4025 10.112 33.1045 10.6615 32.8066L9.76331 31.104ZM6.41378 33.0939C5.82101 33.4344 5.24831 33.892 4.75486 34.2218L5.90659 35.7542C6.43174 35.3711 6.99704 34.9774 7.44928 34.7007L6.41378 33.0939ZM3.25444 35.4988C2.74725 35.967 2.24746 36.5097 1.85968 36.9673L3.30727 38.2123C3.71407 37.7121 4.06805 37.3397 4.54353 36.9141L3.25444 35.4988ZM26.268 35.6371L26.437 37.5419C26.9865 37.4461 27.5359 37.51 28.0854 37.5951L28.4129 35.7116C27.7156 35.6052 26.9759 35.5307 26.268 35.6371ZM22.3373 36.7012L23.0558 38.4783C23.6052 38.2336 24.1758 38.042 24.757 37.8611C24.5562 37.2546 24.4083 36.6374 24.2498 36.0202C23.5841 36.2117 22.9184 36.4671 22.3373 36.7012ZM30.5262 36.6055L29.4484 38.1803C29.8922 38.5102 30.3254 38.8614 30.6741 39.2977L32.1112 38.042C31.5723 37.4887 31.1602 36.9673 30.5262 36.6055ZM20.541 37.5632C19.9598 37.8611 19.3998 38.2016 18.8398 38.5315L19.8014 40.1809C20.3508 39.8829 20.8897 39.5318 21.4286 39.2445L20.541 37.5632ZM0.698436 38.7337C0.379332 39.4254 0.120456 40.1702 0 40.83L1.87024 41.1599C1.98436 40.5533 2.14814 40.117 2.388 39.5956C1.8079 39.3402 1.25423 39.0316 0.698436 38.7337ZM17.1915 39.5637C16.6526 39.9148 16.1243 40.266 15.5959 40.6278L16.6526 42.224C17.1809 41.8728 17.6986 41.511 18.227 41.1599L17.1915 39.5637ZM33.3263 39.6914L31.7308 40.7342C32.0689 41.245 32.3965 41.777 32.7029 42.3197L34.3512 41.362C33.9814 40.7661 33.7172 40.2341 33.3263 39.6914ZM14.0216 41.7132C13.4932 42.0644 12.9649 42.4049 12.4472 42.7773L13.5038 44.3735C14.011 44.001 14.5499 43.6499 15.0888 43.2881L14.0216 41.7132ZM1.89138 42.7241C1.27959 42.8518 0.662511 42.9582 0.0475487 43.0753C0.158495 43.8201 0.45541 44.5437 0.723795 45.1184L2.44083 44.2883C2.21154 43.7563 1.99387 43.203 1.89138 42.7241ZM35.2916 43.0221L33.6433 43.9798C33.9708 44.5544 34.3512 45.1716 34.6576 45.6611L36.2532 44.6289C35.8939 44.0649 35.5875 43.5328 35.2916 43.0221ZM10.8833 43.8201C10.355 44.15 9.83728 44.4692 9.28783 44.7778L10.2282 46.4485C10.7882 46.1186 11.3483 45.7887 11.8872 45.4376L10.8833 43.8201ZM3.34953 45.5546L2.04987 46.9593C2.63736 47.5233 3.36222 47.8957 4.15258 48.0659L4.57523 46.2038C4.10609 46.108 3.66758 45.8739 3.34953 45.5546ZM7.68174 45.5866C7.15237 45.8313 6.60292 46.0229 6.03339 46.1399L6.46661 48.0127C7.14497 47.8744 7.78318 47.619 8.42139 47.353L7.68174 45.5866ZM37.2992 46.0973L35.8305 47.2998C36.2849 47.8638 36.8449 48.4065 37.3309 48.7895L38.5038 47.2785C38.0389 46.9167 37.6374 46.4804 37.2992 46.0973ZM39.8457 47.9595L39.3702 49.8217C40.205 49.992 40.8284 50.0452 41.6103 49.9601L41.3779 48.0553C40.8601 48.1404 40.3529 48.0872 39.8457 47.9595Z" fill="black"/>
</svg>