<svg xmlns="http://www.w3.org/2000/svg" width="50" height="46" viewBox="0 0 50 46" fill="none">
  <path d="M31.2692 21.7512L26.4159 31.9569C25.83 33.1993 24.1309 33.1582 23.5938 31.8953L18.0375 18.9277L15.108 26.2894H5.91908L23.7403 45.4379C24.4336 46.1874 25.5566 46.1874 26.2499 45.4379L44.0809 26.2894H33.4272L31.2692 21.7512ZM46.2585 4.30713L46.0242 4.05044C40.9952 -1.35015 32.7632 -1.35015 27.7245 4.05044L25 6.98689L22.2755 4.06071C17.2465 -1.35015 9.00484 -1.35015 3.97583 4.06071L3.74147 4.30713C-1.01411 9.42023 -1.21918 17.5622 3.02862 23.0039H13.028L16.5337 14.1535C17.061 12.829 18.8382 12.7982 19.4046 14.1124L25.0879 27.388L29.8728 17.3363C30.4489 16.1248 32.0894 16.1248 32.6656 17.3363L35.3607 23.0039H46.9714C51.2192 17.5622 51.0141 9.42023 46.2585 4.30713Z" fill="black"/>
</svg>