<svg xmlns="http://www.w3.org/2000/svg" width="50" height="44" viewBox="0 0 50 44" fill="none">
  <path d="M24.8438 0.50451C25.1855 0.134445 25.7227 -0.05489 26.2598 0.0139592C30.8398 0.556147 34.375 4.01582 34.375 8.19841C34.375 9.1623 34.1895 10.0918 33.8379 10.9524H34.375C37.8223 10.9524 40.625 13.4223 40.625 16.4603C40.625 18.1041 39.8047 19.5843 38.5059 20.5913H39.8438C43.7305 20.5913 46.875 23.3624 46.875 26.7877C46.875 28.7843 45.8008 30.5572 44.1406 31.6932C47.4707 32.1838 50 34.7312 50 37.8036C50 41.2288 46.8555 44 42.9688 44H7.03125C3.14453 44 0 41.2288 0 37.8036C0 34.7312 2.5293 32.1838 5.85938 31.6932C4.19922 30.5572 3.125 28.7843 3.125 26.7877C3.125 23.3624 6.26953 20.5913 10.1562 20.5913H11.4941C10.1953 19.5843 9.375 18.1041 9.375 16.4603C9.375 13.4223 12.1777 10.9524 15.625 10.9524H17.207C21.5137 10.9438 25 7.86277 25 4.06746C25 3.27569 24.8535 2.52696 24.5801 1.82125C24.4043 1.37373 24.502 0.865968 24.8535 0.495904L24.8438 0.50451Z" fill="black"/>
</svg>