<svg xmlns="http://www.w3.org/2000/svg" width="50" height="50" viewBox="0 0 50 50" fill="none">
  <path d="M17.8572 10.7144H13.0952C12.4638 10.7144 11.8582 10.9652 11.4117 11.4117C10.9651 11.8582 10.7143 12.4638 10.7143 13.0953V39.2858C10.7143 39.9173 10.9651 40.5229 11.4117 40.9694C11.8582 41.4159 12.4638 41.6667 13.0952 41.6667H36.9048C37.5362 41.6667 38.1418 41.4159 38.5884 40.9694C39.0349 40.5229 39.2857 39.9173 39.2857 39.2858V13.0953C39.2857 12.4638 39.0349 11.8582 38.5884 11.4117C38.1418 10.9652 37.5362 10.7144 36.9048 10.7144H32.1429" stroke="black" stroke-linecap="round" stroke-linejoin="round"/>
  <path d="M22.6191 20.2381H34.5238M22.6191 27.381H34.5238M22.6191 34.5238H34.5238M15.4762 20.2381H17.8571M15.4762 27.381H17.8571M15.4762 34.5238H17.8571M20.2381 8.33337H29.7619C30.3934 8.33337 30.999 8.58422 31.4455 9.03074C31.892 9.47725 32.1429 10.0829 32.1429 10.7143C32.1429 11.3458 31.892 11.9514 31.4455 12.3979C30.999 12.8444 30.3934 13.0953 29.7619 13.0953H20.2381C19.6066 13.0953 19.001 12.8444 18.5545 12.3979C18.108 11.9514 17.8571 11.3458 17.8571 10.7143C17.8571 10.0829 18.108 9.47725 18.5545 9.03074C19.001 8.58422 19.6066 8.33337 20.2381 8.33337Z" stroke="black" stroke-linecap="round" stroke-linejoin="round"/>
</svg>