<svg xmlns="http://www.w3.org/2000/svg" width="10" height="11" viewBox="0 0 10 11" fill="none">
  <path d="M5.11506 0.267536C5.11506 0.267536 5.12922 0.339831 5.16906 0.466353C5.20644 0.592874 5.27088 0.773601 5.35734 0.990486C5.40474 1.09894 5.45045 1.21642 5.5091 1.34066C5.56924 1.46493 5.62437 1.59596 5.69683 1.7315C5.76777 1.86705 5.83484 2.00713 5.91537 2.14946L6.15215 2.58097C6.22951 2.72556 6.31703 2.87015 6.39775 3.01249C6.47947 3.15482 6.55974 3.2949 6.64299 3.43044C6.72551 3.56599 6.80203 3.69704 6.88039 3.82129L7.10115 4.17146L7.45013 4.69559L7.5908 4.89441C8.71793 6.4875 8.4576 8.78405 7.00933 10.0239C5.56107 11.2637 3.4733 10.9774 2.34617 9.38428C1.39258 8.03646 1.43435 6.18334 2.34617 4.89441L2.48683 4.69559L2.83582 4.17146L3.05658 3.82129C3.13494 3.69702 3.21148 3.56599 3.29398 3.43044C3.37722 3.2949 3.4575 3.15482 3.53922 3.01249C3.61992 2.87015 3.70744 2.72556 3.78482 2.58097L4.0216 2.14946C4.10213 2.00713 4.1692 1.86705 4.24013 1.7315C4.31258 1.59596 4.36773 1.4649 4.42787 1.34066C4.48652 1.21639 4.53224 1.09892 4.57963 0.990486C4.66609 0.773601 4.73053 0.592853 4.76791 0.466353C4.80775 0.339831 4.82191 0.267536 4.82191 0.267536C4.8291 0.230645 4.84757 0.197582 4.87425 0.173864C4.90092 0.150146 4.93418 0.137207 4.96848 0.137207C5.00278 0.137207 5.03605 0.150146 5.06272 0.173864C5.08939 0.197582 5.10787 0.230645 5.11506 0.267536Z" fill="#FFE69C"/>
  <path d="M3.18052 5.59481L3.16123 5.69059C3.15439 5.72148 3.14689 5.75899 3.14638 5.79423C3.14459 5.83268 3.13925 5.8676 3.13976 5.91778C3.13982 5.96595 3.13652 6.01543 3.14121 6.07041C3.14347 6.12431 3.14734 6.18052 3.15558 6.23917C3.16847 6.35508 3.19418 6.47795 3.22541 6.59682C3.28851 6.83545 3.38488 7.05955 3.46785 7.2019C3.4977 7.25537 3.53175 7.30586 3.56961 7.35279L3.60636 7.38882C3.8755 7.65256 3.89931 8.10637 3.65955 8.40241C3.41978 8.69846 3.00722 8.72465 2.7381 8.46091C2.64287 8.36789 2.5746 8.24613 2.54177 8.11078L2.51023 7.98138L2.4764 7.84298C2.46054 7.75998 2.44216 7.64515 2.43373 7.5165C2.41404 7.25794 2.425 6.93084 2.47918 6.61347C2.5066 6.45483 2.54213 6.2993 2.58845 6.15738C2.60972 6.08648 2.63496 6.0191 2.66052 5.95637C2.68345 5.89351 2.71363 5.83591 2.73806 5.78346C2.76095 5.7322 2.79328 5.68032 2.81629 5.63874C2.84052 5.59369 2.86215 5.56473 2.88004 5.54125L2.93609 5.465C2.95934 5.43338 2.99305 5.41321 3.02981 5.40893C3.06658 5.40465 3.10338 5.41661 3.13213 5.44218C3.17459 5.47995 3.1915 5.53987 3.18052 5.59481Z" fill="#F2F2F2"/>
</svg>