<svg xmlns="http://www.w3.org/2000/svg" width="15" height="15" viewBox="0 0 15 15" fill="none">
  <path d="M13.9324 8.80427C13.7615 8.43509 13.473 8.133 13.1121 7.94528C12.8939 7.80899 12.6571 7.70516 12.409 7.63708C12.5883 6.98083 12.334 6.45818 11.9766 6.06794C11.448 5.49607 10.8984 5.41286 10.8984 5.41286C11.0883 5.0531 11.1457 4.63825 11.0578 4.24099C10.9676 3.80857 10.6969 3.43708 10.3125 3.21911C9.94922 3.00466 9.50156 2.89919 9.04218 2.81247C8.82187 2.77263 7.89257 2.64255 7.50703 2.10935C7.19648 1.67693 7.18711 0.8988 7.10273 0.665597C7.01836 0.432394 6.70664 0.530831 6.37265 0.754659C5.98242 1.0195 5.17383 1.85505 4.86211 2.69528C4.6561 3.21203 4.60401 3.77733 4.71211 4.32302C4.46132 4.36403 4.2164 4.43669 3.98437 4.53982C3.96562 4.53982 3.94687 4.55153 3.92695 4.55974C3.57539 4.70505 2.82187 5.38005 2.75508 6.41716C2.73047 6.78396 2.77734 7.15075 2.89218 7.49997C2.63554 7.56677 2.38828 7.66755 2.15859 7.80114C1.89023 7.91599 1.64531 8.08005 1.43789 8.28513C1.20937 8.56755 1.04297 8.8945 0.951559 9.24607C0.739264 10.0206 0.822811 10.8465 1.18593 11.5629C1.39687 11.9695 1.66172 12.3445 1.97578 12.6785C2.97773 13.7086 4.70742 14.0976 6.07734 14.3191C7.74023 14.5933 9.48164 14.4972 11.0379 13.8504C13.3723 12.8871 13.9934 11.3379 14.0848 10.9008C14.2875 9.93396 14.0391 9.02341 13.9324 8.80427Z" fill="#885742"/>
  <path d="M10.248 10.8855C10.0641 10.9793 9.87656 11.0636 9.68789 11.1386C9.56133 11.189 9.4336 11.2347 9.30469 11.2758C9.17578 11.3179 9.0457 11.3543 8.91445 11.3929C8.65195 11.4586 8.38477 11.5066 8.11524 11.5347C7.91133 11.557 7.70508 11.5676 7.5 11.5676C6.9586 11.5676 6.41953 11.4914 5.89805 11.3437L5.72695 11.2922C5.44025 11.2009 5.16027 11.0897 4.88906 10.9594L4.72617 10.8785C4.82219 11.2711 5.00631 11.6366 5.26457 11.9475C5.52284 12.2583 5.84847 12.5063 6.2168 12.6726C6.61875 12.859 7.05703 12.9539 7.5 12.9515C7.94766 12.9551 8.39063 12.8636 8.79961 12.6808C9.17103 12.5175 9.49836 12.2683 9.75466 11.9537C10.011 11.6392 10.1889 11.2682 10.2738 10.8715L10.248 10.8855Z" fill="#35220B"/>
  <path d="M9.9832 10.5469C9.16289 10.691 8.33203 10.7601 7.5 10.7543C6.66797 10.759 5.83711 10.6898 5.0168 10.5469C4.97605 10.539 4.93399 10.5412 4.89431 10.5534C4.85464 10.5656 4.81857 10.5873 4.78928 10.6167C4.75999 10.6461 4.73838 10.6823 4.72635 10.722C4.71433 10.7617 4.71225 10.8038 4.72031 10.8445V10.8738C5.5784 11.3225 6.53171 11.5584 7.5 11.5617C7.70508 11.5617 7.91133 11.5512 8.11523 11.5289C8.38477 11.5008 8.65195 11.4527 8.91445 11.3871C9.0457 11.3543 9.17578 11.318 9.30469 11.2699C9.43359 11.2219 9.56133 11.1832 9.68789 11.1328C9.87773 11.0543 10.0641 10.9699 10.248 10.8797L10.2738 10.8656L10.2809 10.834C10.3008 10.6945 10.2035 10.5656 10.0629 10.5457C10.0364 10.542 10.0095 10.5424 9.9832 10.5469Z" fill="white"/>
  <path d="M9.39024 9.59644C10.1928 9.59644 10.8434 8.94585 10.8434 8.14331C10.8434 7.34077 10.1928 6.69019 9.39024 6.69019C8.5877 6.69019 7.93711 7.34077 7.93711 8.14331C7.93711 8.94585 8.5877 9.59644 9.39024 9.59644Z" fill="white"/>
  <path d="M9.39023 8.82537C9.76108 8.82537 10.0617 8.52001 10.0617 8.14333C10.0617 7.76666 9.76108 7.4613 9.39023 7.4613C9.01938 7.4613 8.71875 7.76666 8.71875 8.14333C8.71875 8.52001 9.01938 8.82537 9.39023 8.82537Z" fill="#35220B"/>
  <path d="M5.60976 9.59644C6.4123 9.59644 7.06289 8.94585 7.06289 8.14331C7.06289 7.34077 6.4123 6.69019 5.60976 6.69019C4.80723 6.69019 4.15664 7.34077 4.15664 8.14331C4.15664 8.94585 4.80723 9.59644 5.60976 9.59644Z" fill="white"/>
  <path d="M5.60977 8.82537C5.98062 8.82537 6.28125 8.52001 6.28125 8.14333C6.28125 7.76666 5.98062 7.4613 5.60977 7.4613C5.23892 7.4613 4.93829 7.76666 4.93829 8.14333C4.93829 8.52001 5.23892 8.82537 5.60977 8.82537Z" fill="#35220B"/>
</svg>