<svg xmlns="http://www.w3.org/2000/svg" width="50" height="50" viewBox="0 0 24 24" fill="none">
  <path d="M4 20V4H16.577L20 7.423V9.689L19 10.683V7.844L16.156 5H5V19H10.846V20H4ZM13.23 22V19.79L19.19 13.856L21.38 16.06L15.44 22H13.23ZM14.116 21.116H15.066L18.533 17.642L18.063 17.167L17.608 16.679L14.116 20.166V21.116ZM18.063 17.167L17.608 16.679L18.533 17.642L18.063 17.167ZM6.769 9.77H14.192V6.77H6.77L6.769 9.77ZM12 16.54C12.1193 16.54 12.2323 16.527 12.339 16.501C12.445 16.475 12.5513 16.4303 12.658 16.367L13.827 15.222C13.891 15.112 13.936 15.0017 13.962 14.891C13.9873 14.7797 14 14.6627 14 14.54C14 13.9887 13.8047 13.5173 13.414 13.126C13.0233 12.7347 12.552 12.539 12 12.539C11.448 12.539 10.977 12.7343 10.587 13.125C10.197 13.5157 10.0013 13.9867 10 14.538C9.99867 15.0893 10.1943 15.5607 10.587 15.952C10.9797 16.3433 11.4507 16.5387 12 16.538" fill="black"/>
</svg>