<svg xmlns="http://www.w3.org/2000/svg" width="30" height="30" viewBox="0 0 30 30" fill="none">
  <path d="M15 0C12.0332 0 9.13314 0.879734 6.66641 2.52795C4.19967 4.17618 2.27708 6.51886 1.14177 9.25975C0.00645323 12.0006 -0.290596 15.0166 0.288182 17.9264C0.86696 20.8361 2.29557 23.5088 4.39336 25.6066C6.49115 27.7044 9.16389 29.133 12.0736 29.7118C14.9833 30.2905 17.9993 29.9935 20.7402 28.8582C23.4811 27.7229 25.8238 25.8003 27.472 23.3335C29.1202 20.8668 30 17.9667 30 15C29.9953 11.0232 28.4134 7.21059 25.6014 4.39856C22.7894 1.58652 18.9768 0.00467037 15 0ZM15 28.2353C12.3823 28.2353 9.82336 27.459 7.64682 26.0047C5.47029 24.5504 3.77389 22.4834 2.77214 20.0649C1.7704 17.6465 1.50829 14.9853 2.01898 12.4179C2.52967 9.85052 3.7902 7.49222 5.64119 5.64123C7.49218 3.79024 9.85049 2.5297 12.4179 2.01902C14.9853 1.50833 17.6465 1.77043 20.0649 2.77218C22.4833 3.77393 24.5504 5.47033 26.0047 7.64686C27.459 9.8234 28.2352 12.3823 28.2352 15C28.2314 18.509 26.8357 21.8732 24.3544 24.3545C21.8732 26.8357 18.509 28.2314 15 28.2353ZM16.4705 15C16.4705 15.2909 16.3843 15.5752 16.2227 15.817C16.0611 16.0588 15.8314 16.2473 15.5627 16.3586C15.294 16.4699 14.9983 16.4991 14.7131 16.4423C14.4278 16.3856 14.1658 16.2455 13.9601 16.0399C13.7544 15.8342 13.6144 15.5722 13.5576 15.2869C13.5009 15.0016 13.53 14.7059 13.6413 14.4372C13.7526 14.1685 13.9411 13.9388 14.1829 13.7772C14.4248 13.6157 14.7091 13.5294 15 13.5294C15.39 13.5294 15.764 13.6843 16.0398 13.9601C16.3156 14.2359 16.4705 14.61 16.4705 15ZM9.99996 15C9.99996 15.2909 9.91371 15.5752 9.75212 15.817C9.59053 16.0588 9.36086 16.2473 9.09214 16.3586C8.82343 16.4699 8.52774 16.4991 8.24247 16.4423C7.95721 16.3856 7.69517 16.2455 7.48951 16.0399C7.28384 15.8342 7.14378 15.5722 7.08704 15.2869C7.0303 15.0016 7.05942 14.7059 7.17072 14.4372C7.28203 14.1685 7.47052 13.9388 7.71236 13.7772C7.95419 13.6157 8.23852 13.5294 8.52937 13.5294C8.91939 13.5294 9.29344 13.6843 9.56923 13.9601C9.84502 14.2359 9.99996 14.61 9.99996 15ZM22.9411 15C22.9411 15.2909 22.8549 15.5752 22.6933 15.817C22.5317 16.0588 22.302 16.2473 22.0333 16.3586C21.7646 16.4699 21.4689 16.4991 21.1836 16.4423C20.8984 16.3856 20.6363 16.2455 20.4307 16.0399C20.225 15.8342 20.085 15.5722 20.0282 15.2869C19.9715 15.0016 20.0006 14.7059 20.1119 14.4372C20.2232 14.1685 20.4117 13.9388 20.6535 13.7772C20.8954 13.6157 21.1797 13.5294 21.4705 13.5294C21.8606 13.5294 22.2346 13.6843 22.5104 13.9601C22.7862 14.2359 22.9411 14.61 22.9411 15Z" fill="black"/>
</svg>