<svg xmlns="http://www.w3.org/2000/svg" width="50" height="50" viewBox="0 0 50 50" fill="none">
  <path d="M3.57638 24.2666C2.26804 27.6597 -0.3639 35.3124 0.345823 40.2222C0.345823 40.2222 4.37777 37.9749 4.99721 30.0152C5.50832 23.4444 6.61249 19.7444 6.61249 19.7444C6.61249 19.7444 4.51527 21.8291 3.57638 24.2666Z" fill="#D99E82"/>
  <path d="M35.6653 30.4653C35.6653 30.4653 34.2542 33.732 34.7264 41.9126C34.8111 43.3806 35.0167 44.8792 35.0625 46.1098C37.5792 46.1098 37.357 48.9764 36.8236 48.9764H32.7931C31.8445 48.9764 30.1639 44.2015 29.7208 37.5751C29.2778 30.9473 35.6653 30.4653 35.6653 30.4653ZM19.1514 30.0056C19.1514 30.0056 18.3528 34.9056 14.0806 38.9126C13.7236 40.5278 13.0125 44.7903 12.7625 46.1278C15.3861 46.1278 14.5431 48.9709 13.7778 48.9709H10.1028C8.78195 48.9709 8.58612 44.1903 9.81668 38.2848C11.0458 32.3806 19.1514 30.0056 19.1514 30.0056Z" fill="#C1694F"/>
  <path d="M5.27498 21.7417C7.01525 16.5306 15.2944 16.7028 24.7153 17.9014C28.9583 18.4417 29.7708 11.7167 29.7708 10.5598C29.7708 5.52365 34.2764 2.98337 38.793 4.68615C39.875 5.09309 40.7403 6.53337 41.2291 7.28614C43.975 11.5042 47.6986 7.30698 48.0583 11.2056C48.493 15.9209 45.668 17.5028 41.043 17.9014C38.4153 18.1278 37.675 19.3861 37.1014 24.8709C36.8875 26.9153 36.075 32.7459 32.35 34.7348C31.2666 38.8445 29.8 43.9223 29.225 46.5056C32.3528 47.1667 31.0875 49.532 31.0875 49.532C31.0875 49.532 26.7111 49.4723 25.7597 49.4723C24.6291 49.4723 25.4944 41.1723 27.0583 35.8792C20.4416 35.9389 16.1861 34.0223 14.8375 33.432C13.4097 37.5431 9.07081 38.4778 8.09998 40.2264C7.49859 41.3098 5.49165 44.925 5.32081 46.4709C7.54581 47.1931 6.83609 48.8764 6.58331 49.4181C5.07914 49.3584 2.11109 49.3584 1.72498 49.3584C0.183311 49.3584 3.30415 39.7695 4.61803 37.257C6.12081 34.3806 3.53331 26.9528 5.27498 21.7417Z" fill="#D99E82"/>
  <path d="M27.4083 33.9778C27.3472 34.4931 27.2125 35.2153 27.0569 35.8792C20.4403 35.9389 16.1847 34.0223 14.8361 33.432C15.1347 32.3487 15.1555 31.6681 15.0736 31.2959C19.7875 32.0695 21.3902 34.3584 27.4083 33.9778ZM41.043 17.9014C38.4153 18.1278 37.675 19.3862 37.1014 24.8709C36.8875 26.9153 36.075 32.7459 32.35 34.7348C33.35 30.8626 35.0708 17.5292 41.043 17.9014Z" fill="#F4C7B5"/>
  <path d="M46.5236 11.5639C46.675 12.6223 47.2097 13.2195 47.7445 13.1375C48.8 12.975 49.6778 11.6278 49.6778 10.5598C49.6778 9.49171 48.8111 9.22227 47.7445 9.27088C46.2959 9.33754 46.3528 10.3653 46.5236 11.5639Z" fill="#272B2B"/>
  <path d="M28.9347 13.1875C28.4514 16.6806 30.5417 17.2125 32.2445 17.2125C33.9472 17.2125 36.4861 15.4764 36.0611 11.9764C35.875 10.4389 35.2903 8.93058 34.9375 7.56669C34.4708 5.75697 33.2722 5.16114 32.307 5.66808C29.9945 6.88058 29.2472 10.9403 28.9347 13.1875Z" fill="#662113"/>
  <path d="M38.7931 10.5597C38.0812 10.5597 37.5042 9.98266 37.5042 9.27082C37.5042 8.55899 38.0812 7.98193 38.7931 7.98193C39.5049 7.98193 40.082 8.55899 40.082 9.27082C40.082 9.98266 39.5049 10.5597 38.7931 10.5597Z" fill="#292F33"/>
  <path d="M45.7597 15.2652C45.3854 15.2652 45.0819 14.9618 45.0819 14.5874C45.0819 14.2131 45.3854 13.9097 45.7597 13.9097C46.134 13.9097 46.4375 14.2131 46.4375 14.5874C46.4375 14.9618 46.134 15.2652 45.7597 15.2652Z" fill="#C1694F"/>
  <path d="M44.868 13.9903C44.6617 13.9903 44.4944 13.823 44.4944 13.6167C44.4944 13.4103 44.6617 13.243 44.868 13.243C45.0744 13.243 45.2416 13.4103 45.2416 13.6167C45.2416 13.823 45.0744 13.9903 44.868 13.9903Z" fill="#C1694F"/>
  <path d="M44.3055 14.9611C44.0992 14.9611 43.9319 14.7938 43.9319 14.5875C43.9319 14.3811 44.0992 14.2139 44.3055 14.2139C44.5119 14.2139 44.6791 14.3811 44.6791 14.5875C44.6791 14.7938 44.5119 14.9611 44.3055 14.9611Z" fill="#C1694F"/>
  <path d="M36.9583 25.7361C35.7472 25.8819 33.3403 25.5403 32.2583 25.3C31.1764 25.0597 19.5639 21.618 19.5639 21.618L18.9819 23.5555C18.9819 23.5555 30.9583 27.2653 32.1597 27.625C33.3611 27.9861 36.2292 29.418 36.2292 29.418C36.2292 29.418 36.718 28.6319 36.9583 27.7222C37.2 26.8014 36.9583 25.7361 36.9583 25.7361ZM24.1167 26.4069L21.8875 25.7292C21.8875 25.7292 19.8528 31.8333 20.5305 35.4194L22.9542 35.718C22.9542 35.718 22.7792 33.5514 23.1472 31.2528C23.5361 28.8292 24.1167 26.4069 24.1167 26.4069Z" fill="#377700"/>
  <path d="M38.3625 19.6805C36.9111 19.1361 31.6153 19.2222 28.0917 16.5791C27.3167 15.9972 26.0889 17.7833 26.6375 18.1291C31.0945 20.9389 36.4181 21.2778 37.5875 21.4236C38.3625 21.5208 39.1375 19.9708 38.3625 19.6805Z" fill="#292F33"/>
  <path d="M24.7139 17.9014C24.7139 17.9014 23.8278 20.4542 24.893 21.618C25.9583 22.7805 27.8972 22.8778 27.8972 24.525C27.8972 26.1722 26.7347 27.5292 25.8625 27.3347C24.9903 27.1403 20.4361 26.7528 18.7889 25.5903C17.1417 24.4278 19.2736 17.2569 19.2736 17.2569C19.2736 17.2569 20.7278 16.8694 22.2778 17.2569C23.8278 17.6444 24.7139 17.9014 24.7139 17.9014Z" fill="#489C00"/>
  <path d="M21.2611 23.4083C21.4235 23.4508 21.593 23.4593 21.7589 23.4331C21.9248 23.407 22.0834 23.3468 22.2249 23.2564C22.3664 23.1661 22.4877 23.0474 22.5812 22.9079C22.6747 22.7684 22.7383 22.6111 22.768 22.4458C23.0486 20.8653 23.3139 18.1139 22.0139 17.1278C20.1486 15.7125 10.0458 11.0167 9.07776 10.6278C8.1361 10.25 8.27777 9.2014 7.84443 7.74584C7.4861 6.5389 5.08887 6.47778 5.6736 8.4139C6.31804 10.5458 6.4986 11.6333 7.49582 12.0583C9.7111 13 18.375 17.382 20.0403 18.2375C20.6722 18.5625 20.4958 20.7417 20.3236 22.0708C20.2866 22.3638 20.3577 22.6601 20.5237 22.9043C20.6896 23.1485 20.939 23.3238 21.225 23.3972C21.2375 23.4028 21.25 23.4056 21.2611 23.4083Z" fill="#377700"/>
</svg>